<?xml version="1.0" encoding="UTF-8" standalone="no"?>
<!DOCTYPE svg PUBLIC "-//W3C//DTD SVG 1.1//EN" "http://www.w3.org/Graphics/SVG/1.1/DTD/svg11.dtd">
<!-- Created with Vectornator (http://vectornator.io/) -->
<svg height="100%" stroke-miterlimit="10" style="fill-rule:nonzero;clip-rule:evenodd;stroke-linecap:round;stroke-linejoin:round;" version="1.1" viewBox="0 0 30 30" width="100%" xml:space="preserve" xmlns="http://www.w3.org/2000/svg" xmlns:vectornator="http://vectornator.io" xmlns:xlink="http://www.w3.org/1999/xlink">
<defs/>
<clipPath id="ArtboardFrame">
<rect height="30" width="30" x="0" y="0"/>
</clipPath>
<g clip-path="url(#ArtboardFrame)" id="Layer-1" vectornator:layerName="Layer 1">
<path d="M11.0081 29.5997L8.55554 29.5997C7.44925 29.5997 6.53413 28.6724 6.53413 27.5661L6.53413 24.2147C8.59214 22.901 9.38118 21.872 9.38118 21.872L12.2282 22.6855C11.4148 25.1258 9.38118 25.9392 9.38118 25.9392L9.38118 27.9728C11.0528 27.9728 11.0081 29.5997 11.0081 29.5997ZM23.2097 29.5997L20.7856 29.5957L19.4069 29.5916L19.2157 29.5916L19.2157 22.6855C20.0576 22.6692 20.8344 22.3642 21.4445 21.872L21.5828 21.872L21.5828 27.9728C23.0877 27.9728 23.2097 29.5997 23.2097 29.5997Z" fill="#b77748" fill-rule="nonzero" opacity="1" stroke="none"/>
<path d="M25.1335 5.68249C23.9524 3.31822 22.3202 3.17546 21.4567 3.17546L20.1211 3.17546C18.7667 3.17546 17.876 4.13044 17.4814 5.17612C17.2838 5.70039 15.6683 10.0743 15.1082 11.5307C14.5482 12.9868 13.2178 13.3309 12.2282 13.3309L7.14421 13.3309C6.96444 13.3309 6.12741 13.3309 6.12741 13.3309C4.81207 13.0279 2.7862 12.3031 2.26356 10.4838C1.76533 8.74957 2.30423 6.72126 3.73548 4.55506C3.98602 4.17559 3.95349 3.65173 3.60289 3.36215C3.20187 3.03067 2.61659 3.12625 2.33596 3.5472C0.579735 6.18113 0.0705199 8.82563 0.678975 10.9268C1.25245 12.903 2.58406 14.5502 3.68708 15.3645C3.21651 16.0958 2.87364 16.5846 2.87364 18.2115C2.87364 23.0922 0.433315 24.3124 0.433315 24.3124L0.433315 27.5934C0.433315 28.7013 1.33176 29.5997 2.43967 29.5997L4.90725 29.5997C4.90725 29.5997 4.95117 27.9728 3.28036 27.9728L3.28036 25.9392C7.79497 23.9329 9.38118 21.872 9.38118 21.872C11.8894 21.872 12.2823 23.4989 16.2954 23.4989L16.2954 27.5661C16.2954 28.6846 17.2106 29.5977 18.3295 29.5953L20.7832 29.5892C20.7832 29.5892 20.6478 27.9728 19.1429 27.9728L19.1429 22.6855L19.1429 22.6855C21.1639 22.6855 22.8018 21.0456 22.7989 19.0246C22.7965 17.2285 22.7989 15.5447 22.8014 13.736C22.8018 12.8371 23.531 12.1107 24.4299 12.1107L24.4299 12.1107C29.4427 12.1107 28.9038 8.04351 28.9038 8.04351C28.9038 8.04351 25.9689 7.35411 25.1335 5.68249Z" fill="#fcba7f" fill-rule="nonzero" opacity="1" stroke="none"/>
<path d="M28.9201 8.37702C28.9201 9.35315 28.5581 12.1107 24.4299 12.1107C23.531 12.1107 22.803 12.8387 22.7989 13.7376C22.7989 15.5434 22.7948 17.2273 22.7989 19.025C22.7989 19.029 22.7989 19.029 22.7989 19.0331C22.7989 20.1801 22.2702 21.2009 21.4445 21.872C20.8344 22.3642 20.0576 22.6692 19.2157 22.6855L19.1425 22.6855L19.1425 27.9728C19.1669 27.9728 19.1913 27.9728 19.2157 27.9769L19.2157 29.5916L18.329 29.5957C17.2106 29.5997 16.2954 28.6846 16.2954 27.5661L16.2954 23.4989C12.2811 23.4989 11.8906 21.872 9.38118 21.872C9.38118 21.872 8.59214 22.901 6.53413 24.2147C5.68002 24.7557 4.60627 25.3495 3.28036 25.9392L3.28036 27.9728C4.95199 27.9728 4.90725 29.5997 4.90725 29.5997L2.43845 29.5997C1.33217 29.5997 0.433315 28.7009 0.433315 27.5946L0.433315 24.3124C0.433315 24.3124 2.87364 23.0922 2.87364 18.2115C2.87364 16.5846 3.21529 16.0966 3.68708 15.3645C2.58487 14.551 1.25082 12.9038 0.677348 10.9272C0.0713333 8.82441 0.579735 6.18072 2.33677 3.54517C2.61741 3.12625 3.20309 3.0327 3.60167 3.36215C3.95552 3.65092 3.98806 4.17559 3.73589 4.55384C2.30423 6.72166 1.76736 8.7512 2.26356 10.4838C2.78823 12.3019 4.8137 13.0299 6.12741 13.3309C6.12741 13.3309 6.96526 13.3309 7.14421 13.3309L12.2282 13.3309C13.2166 13.3309 14.5465 12.9852 15.1078 11.5291C15.6691 10.073 17.2838 5.70079 17.4831 5.17612C17.8735 4.13085 18.7683 3.17505 20.1227 3.17505L21.4567 3.17505C22.319 3.17505 23.954 3.31741 25.1335 5.68452C25.9673 7.35208 28.9038 8.04351 28.9038 8.04351C28.9038 8.04351 28.9201 8.16959 28.9201 8.37702Z" fill="#fcba7f" fill-rule="nonzero" opacity="1" stroke="none"/>
<path d="M20.7816 29.5875L19.4069 29.5916L19.2157 29.5916L19.2157 27.9769C20.6514 28.0257 20.7816 29.5875 20.7816 29.5875Z" fill="#fcba7f" fill-rule="nonzero" opacity="1" stroke="none"/>
<path d="M15.8887 10.4838L15.8887 18.6183C15.8887 19.2283 15.4047 20.7291 14.6686 21.4653C13.9324 22.2015 13.1474 22.4821 12.0249 22.4821C12.0249 22.4821 9.99126 21.6687 9.38118 21.872L3.79283 15.153C2.69062 14.3395 1.25082 12.9038 0.677348 10.9272C0.0713333 8.82441 0.579735 6.18072 2.33677 3.54517C2.61741 3.12625 3.20309 3.0327 3.60167 3.36215C3.95552 3.65092 3.98806 4.17559 3.73589 4.55384C2.30423 6.72166 1.76736 8.7512 2.26356 10.4838C2.78823 12.3019 4.8137 13.0299 6.12741 13.3309C6.12741 13.3309 6.96526 13.3309 7.14421 13.3309L12.2282 13.3309C13.2166 13.3309 14.5465 12.9852 15.1078 11.5291C15.2217 11.2322 15.3803 10.8092 15.5633 10.3252L15.8887 10.4838Z" fill="#d68f53" fill-rule="nonzero" opacity="1" stroke="none"/>
<path d="M21.0354 7.68559C20.6994 6.8693 19.7924 6.44184 18.9391 6.69075C18.9391 6.69075 18.1257 8.9749 18.1257 10.8438C18.1257 11.8821 18.7358 13.1279 19.9559 13.1279C21.1761 13.1279 21.7862 11.8821 21.7862 10.8438C21.7862 9.7676 21.4039 8.57997 21.0354 7.68559Z" fill="#b77748" fill-rule="nonzero" opacity="1" stroke="none"/>
<path d="M28.0904 7.63678C27.6411 7.63678 27.2769 8.00097 27.2769 8.45023C27.2769 8.89948 27.6411 9.26367 28.0904 9.26367C28.5396 9.26367 28.9038 8.89948 28.9038 8.45023C28.9038 8.00097 28.5396 7.63678 28.0904 7.63678ZM23.8198 6.41662C23.4828 6.41662 23.2097 6.68976 23.2097 7.0267C23.2097 7.36364 23.4828 7.63678 23.8198 7.63678C24.1567 7.63678 24.4299 7.36364 24.4299 7.0267C24.4299 6.68976 24.1567 6.41662 23.8198 6.41662ZM19.9559 13.3309C18.6349 13.3309 17.9223 12.0493 17.9223 10.8434C17.9223 9.74645 18.1956 8.5149 18.425 7.67502C18.4547 7.56642 18.5658 7.50379 18.6748 7.53226C18.7829 7.56195 18.8468 7.6738 18.8175 7.78198C18.5946 8.59827 18.329 9.79159 18.329 10.8434C18.329 11.7072 18.8338 12.9242 19.9559 12.9242C21.0781 12.9242 21.5828 11.7072 21.5828 10.8434C21.5828 9.77288 21.183 8.57712 20.8475 7.76287C20.5506 7.04134 19.7542 6.66391 18.9961 6.88598C18.8875 6.9177 18.7752 6.85547 18.7439 6.74769C18.7126 6.63991 18.7744 6.52684 18.8822 6.49552C19.84 6.2157 20.8475 6.69441 21.2237 7.60791C21.5731 8.45633 21.9895 9.70659 21.9895 10.8434C21.9895 12.0493 21.277 13.3309 19.9559 13.3309Z" fill="#1f212b" fill-rule="nonzero" opacity="1" stroke="none"/>
<path d="M29.3069 7.99023C29.2849 7.82266 29.1612 7.6864 28.9969 7.64777C28.9693 7.64126 26.2365 6.98034 25.4975 5.50109C24.1321 2.76874 22.1185 2.76874 21.4567 2.76874L20.1211 2.76874C18.7646 2.76874 17.6356 3.61513 17.1007 5.03255C17.0442 5.18182 16.8734 5.64222 16.6448 6.25881C16.0774 7.78686 15.1281 10.3443 14.7287 11.3847C14.2134 12.7241 12.9408 12.9242 12.2282 12.9242L6.17418 12.9242C4.80028 12.6012 3.09286 11.8964 2.65442 10.3716C2.19726 8.77926 2.67516 6.89777 4.0751 4.77916C4.45375 4.20609 4.36224 3.46179 3.86197 3.04856C3.58459 2.81917 3.22342 2.71831 2.86917 2.76955C2.51451 2.82161 2.19726 3.02294 1.99756 3.32147C0.22426 5.98143-0.382974 8.72232 0.288522 11.0398C0.863626 13.0218 2.12487 14.597 3.14655 15.4552C2.75569 16.0832 2.46692 16.7087 2.46692 18.2115C2.46692 22.742 0.338956 23.9028 0.251511 23.9483C0.113632 24.0175 0.026594 24.1582 0.026594 24.3124L0.026594 27.5934C0.026594 28.9238 1.10929 30.0064 2.44008 30.0064L4.90725 30.0064C5.12769 30.0064 5.30787 29.8311 5.31397 29.6107C5.31478 29.5749 5.33105 28.722 4.74903 28.1237C4.47206 27.8394 4.11617 27.6625 3.68708 27.5962L3.68708 26.2024C4.62539 25.7753 5.43395 25.3479 6.12741 24.9387L6.12741 27.5661C6.12741 28.912 7.21702 30.0064 8.55676 30.0064L11.0081 30.0064C11.2285 30.0064 11.4087 29.8311 11.4148 29.6107C11.4156 29.5749 11.4319 28.722 10.8498 28.1237C10.5729 27.8394 10.217 27.6625 9.7879 27.5962L9.7879 26.1963C10.3561 25.9002 11.7215 25.029 12.4666 23.2105C13.2853 23.5497 14.2903 23.856 15.8887 23.9003L15.8887 27.5661C15.8887 28.2161 16.1433 28.8278 16.6054 29.289C17.0666 29.749 17.6767 30.002 18.3246 30.002C18.3266 30.002 18.3282 30.002 18.3303 30.002L20.784 29.9959C20.7848 29.9959 20.7856 29.9955 20.7865 29.9955L20.7865 30.002L23.2089 30.0064C23.2089 30.0064 23.2093 30.0064 23.2097 30.0064C23.3228 30.0064 23.4305 29.9593 23.5074 29.8767C23.5843 29.7941 23.6237 29.6823 23.6152 29.5696C23.5684 28.9441 23.1633 27.8154 21.9895 27.6019L21.9895 21.9261C21.9985 21.9172 22.0087 21.9094 22.0176 21.9005C22.7851 21.1318 23.2069 20.1105 23.2052 19.0242C23.2032 17.4449 23.2048 15.9522 23.2069 14.3847L23.2077 13.7368C23.2085 13.0645 23.7567 12.5174 24.4299 12.5174C26.2052 12.5174 27.5327 12.0298 28.3759 11.0679C29.5257 9.75539 29.3166 8.0614 29.3069 7.99023ZM9.22988 25.5614C9.07573 25.6236 8.97446 25.7729 8.97446 25.9392L8.97446 27.9728C8.97446 28.1974 9.15667 28.3796 9.38118 28.3796C9.76512 28.3796 10.0616 28.4829 10.263 28.687C10.4118 28.8379 10.4952 29.0271 10.542 29.193L8.55676 29.193C7.68068 29.193 6.94085 28.4479 6.94085 27.5661L6.94085 24.4327C8.45914 23.4412 9.26811 22.6192 9.56705 22.2824C10.4492 22.3145 11.0495 22.5761 11.7198 22.8811C10.9174 24.8508 9.24656 25.5549 9.22988 25.5614ZM21.5828 28.3796C22.269 28.3796 22.5711 28.8294 22.7037 29.1922L21.1212 29.1893C20.9638 28.5683 20.5176 27.7768 19.5492 27.6019L19.5492 23.0723C20.128 23.0153 20.6799 22.836 21.1761 22.5484L21.1761 27.9728C21.1761 28.1974 21.3583 28.3796 21.5828 28.3796ZM27.7638 10.5314C27.0821 11.3095 25.9604 11.704 24.4299 11.704C23.3089 11.704 22.3954 12.6155 22.3942 13.7356L22.3934 14.3835C22.3914 15.9514 22.3897 17.4449 22.3918 19.025C22.393 19.8937 22.0558 20.7104 21.4421 21.325C20.8279 21.9399 20.0112 22.2787 19.1425 22.2787C18.918 22.2787 18.7358 22.461 18.7358 22.6855L18.7358 27.9728C18.7358 28.1974 18.918 28.3796 19.1425 28.3796C19.8282 28.3796 20.1353 28.8237 20.272 29.1836L18.3286 29.1885C18.3274 29.1885 18.3262 29.1885 18.325 29.1885C17.8943 29.1885 17.4875 29.0197 17.1805 28.7131C16.8718 28.4056 16.7022 27.9981 16.7022 27.5661L16.7022 23.4989C16.7022 23.2744 16.5199 23.0922 16.2954 23.0922C14.1431 23.0922 13.073 22.6041 12.129 22.1734C11.331 21.8094 10.5769 21.4653 9.38118 21.4653C9.25469 21.4653 9.13593 21.5239 9.05906 21.6239C9.0436 21.6439 7.48505 23.6254 3.11523 25.5675C2.96841 25.633 2.87364 25.7786 2.87364 25.9392L2.87364 27.9728C2.87364 28.1974 3.05585 28.3796 3.28036 28.3796C3.66431 28.3796 3.96121 28.4829 4.16213 28.687C4.31099 28.8379 4.39437 29.0271 4.44115 29.193L2.44008 29.193C1.5579 29.193 0.840036 28.4755 0.840036 27.5934L0.840036 24.5381C1.48632 24.0899 3.28036 22.4622 3.28036 18.2115C3.28036 16.7465 3.56344 16.3073 3.99213 15.6415L4.02873 15.5845C4.14505 15.4043 4.10072 15.1648 3.92827 15.0371C2.96963 14.3294 1.64534 12.7989 1.06943 10.8133C0.474801 8.76015 1.05967 6.19414 2.67394 3.77293C2.74674 3.66393 2.85778 3.59357 2.98712 3.57445C3.11523 3.55615 3.24172 3.59154 3.3434 3.67573C3.53985 3.83801 3.5244 4.13614 3.39587 4.33096C1.85887 6.65699 1.3464 8.76503 1.87229 10.5965C2.30952 12.1176 3.74891 13.2003 6.03549 13.7274C6.066 13.7339 6.0965 13.7376 6.12741 13.7376L12.2282 13.7376C13.7961 13.7376 14.9842 12.9864 15.4881 11.6763C15.8895 10.6315 16.8396 8.07116 17.4074 6.54148C17.6356 5.92693 17.8056 5.46774 17.8617 5.31929C18.0155 4.91175 18.6329 3.58218 20.1211 3.58218L21.4567 3.58218C22.0509 3.58218 23.6294 3.58218 24.7699 5.86429C25.5231 7.3716 27.7109 8.12729 28.5146 8.35993C28.5178 8.81343 28.4344 9.76597 27.7638 10.5314Z" fill="#1f212b" fill-rule="nonzero" opacity="1" stroke="none"/>
<path d="M12.0249 22.6855C11.9126 22.6855 11.8215 22.5944 11.8215 22.4821C11.8215 22.3699 11.9126 22.2787 12.0249 22.2787C14.0605 22.2787 15.482 20.6897 15.482 18.4149C15.482 18.3026 15.5731 18.205 15.6854 18.205C15.7976 18.205 15.8887 18.2896 15.8887 18.4019L15.8887 18.4149C15.8887 20.8894 14.2639 22.6855 12.0249 22.6855ZM15.6854 17.7922C15.5731 17.7922 15.482 17.7011 15.482 17.5888L15.482 16.7754C15.482 16.6631 15.5731 16.572 15.6854 16.572C15.7976 16.572 15.8887 16.6631 15.8887 16.7754L15.8887 17.5888C15.8887 17.7011 15.7976 17.7922 15.6854 17.7922ZM15.6854 16.1653C15.5731 16.1653 15.482 16.0742 15.482 15.962L15.482 10.2805C15.482 10.1682 15.5731 10.0771 15.6854 10.0771C15.7976 10.0771 15.8887 10.1682 15.8887 10.2805L15.8887 15.962C15.8887 16.0742 15.7976 16.1653 15.6854 16.1653Z" fill="#1f212b" fill-rule="nonzero" opacity="1" stroke="none"/>
<path d="M9.38118 22.0754C9.32424 22.0754 9.2673 22.0514 9.22744 22.005L4.49565 16.5216C4.42203 16.4366 4.43179 16.3081 4.5168 16.2349C4.60139 16.1613 4.73032 16.1706 4.80353 16.256L9.53533 21.739C9.60894 21.824 9.59918 21.9526 9.51418 22.0258C9.47554 22.0591 9.42836 22.0754 9.38118 22.0754Z" fill="#1f212b" fill-rule="nonzero" opacity="1" stroke="none"/>
</g>
</svg>
